# xmcd CD database file
#
# Track frame offsets:
#	150
#	12942
#	29192
#	43295
#	55702
#	68455
#	78230
#	93512
#	109440
#	125687
#
# Disc length: 1792 seconds
#
# Revision: 1
# Processed by: cddbd v1.5.2PL0 Copyright (c) Steve Scherf et al.
# Submitted via: CDex 1.70beta2
#
DISCID=8706fe0a
DTITLE=Lynn Anderson - Duelling Country Disk Two
DYEAR=1999
DGENRE=Country
TTITLE0=Top Of The World
TTITLE1=I Was Country When Country Wasn't Cool
TTITLE2=Two Doors Down
TTITLE3=Stand By Your Man
TTITLE4=I Fall To Pieces
TTITLE5=Snowbird
TTITLE6=Desperado
TTITLE7=You Needed Me
TTITLE8=Devil Went Down To Georgia
TTITLE9=Rocky Top
EXTD=YEAR: 1999
EXTT0=
EXTT1=
EXTT2=
EXTT3=
EXTT4=
EXTT5=
EXTT6=
EXTT7=
EXTT8=
EXTT9=
PLAYORDER=
